<svg width="14" height="17" viewBox="0 0 14 17" fill="none" xmlns="http://www.w3.org/2000/svg">
<path d="M3.13331 12.1311L2.52937 12.6316L3.13331 12.1311ZM2.37647 10.4442L3.15383 10.3396L2.37647 10.4442ZM2.89547 8.15868L3.23047 7.44946L2.52125 7.11446L2.18624 7.82368L2.89547 8.15868ZM4.59785 8.96281L5.30707 9.29782L5.64208 8.5886L4.93285 8.25359L4.59785 8.96281ZM4.34774 10.8148L3.6388 11.1506L3.64418 11.1615L4.34774 10.8148ZM7.03371 12.1476L6.85499 11.3838L6.84389 11.3865L7.03371 12.1476ZM7.98696 10.7399L7.23432 10.9607L7.98696 10.7399ZM7.55087 10.0694L6.98243 10.6098L6.99009 10.6179L6.99798 10.6257L7.55087 10.0694ZM6.69171 9.31117L7.17259 8.69151L7.16973 8.6893L6.69171 9.31117ZM6.42145 9.10343L5.94056 9.7231L5.94343 9.7253L6.42145 9.10343ZM5.04506 7.8126L4.43208 8.30197L4.4378 8.30913L4.44368 8.31616L5.04506 7.8126ZM4.41259 6.47275L3.63722 6.59189L3.63946 6.60501L4.41259 6.47275ZM5.76942 3.70201L5.36849 3.02784L5.36513 3.02986L5.76942 3.70201ZM7.3286 3.3173L7.3052 4.10134L7.31181 4.10149L7.3286 3.3173ZM10.7796 4.9634L10.1838 5.47354L10.189 5.47968L10.1944 5.48572L10.7796 4.9634ZM11.5142 6.52772L10.7368 6.63174L10.738 6.64063L10.7394 6.64949L11.5142 6.52772ZM10.9945 8.78089L10.6595 9.49011L11.3687 9.82512L11.7037 9.11589L10.9945 8.78089ZM9.29213 7.97676L8.5829 7.64176L8.2479 8.35098L8.95712 8.68598L9.29213 7.97676ZM9.66405 6.64684L8.88354 6.72446L8.88538 6.74304L8.88811 6.7615L9.66405 6.64684ZM9.31054 5.90324L8.72982 6.43048L8.73767 6.43913L8.74578 6.44755L9.31054 5.90324ZM7.17344 5.06996L7.3482 5.83461L7.35167 5.8338L7.17344 5.06996ZM6.32753 6.35218L5.55643 6.49584L5.55899 6.50955L5.56203 6.52316L6.32753 6.35218ZM6.67886 6.99865L7.27304 6.48661L6.67886 6.99865ZM7.45254 7.70045L7.93056 7.07858L7.92871 7.07717L7.45254 7.70045ZM7.7228 7.9082L7.24478 8.53008L7.2472 8.53192L7.7228 7.9082ZM9.17158 9.24924L9.77003 8.74221L9.77003 8.74221L9.17158 9.24924ZM9.87642 10.6393L9.10614 10.7878L9.10866 10.7998L9.87642 10.6393ZM8.50177 13.4817L8.10064 12.8077L8.09749 12.8096L8.50177 13.4817ZM6.8269 13.9079L6.8174 14.6922L6.82324 14.6922L6.8269 13.9079ZM3.39681 14.3538L2.68758 14.0188L2.35258 14.7281L3.0618 15.0631L3.39681 14.3538ZM9.1618 2.14905L9.4968 1.43983L8.78758 1.10483L8.45257 1.81405L9.1618 2.14905ZM10.7332 2.89133L11.4425 3.22633L11.7775 2.51711L11.0682 2.1821L10.7332 2.89133ZM4.96824 15.0961L4.63323 15.8053L5.34246 16.1403L5.67746 15.4311L4.96824 15.0961ZM5.16155 12.6862C4.53941 12.3924 4.07342 12.0363 3.73725 11.6307L2.52937 12.6316C3.03656 13.2437 3.6994 13.7305 4.49155 14.1047L5.16155 12.6862ZM3.73725 11.6307C3.40307 11.2274 3.21584 10.8004 3.15383 10.3396L1.59912 10.5489C1.70285 11.3196 2.02019 12.0172 2.52937 12.6316L3.73725 11.6307ZM3.15383 10.3396C3.09457 9.89932 3.17085 9.41216 3.43149 8.86036L2.01305 8.19035C1.64688 8.96553 1.49263 9.75763 1.59912 10.5489L3.15383 10.3396ZM3.43149 8.86036L3.60469 8.49369L2.18624 7.82368L2.01305 8.19035L3.43149 8.86036ZM2.56046 8.86791L4.26285 9.67204L4.93285 8.25359L3.23047 7.44946L2.56046 8.86791ZM3.88863 8.62781L3.71543 8.99448L5.13388 9.66448L5.30707 9.29782L3.88863 8.62781ZM3.71543 8.99448C3.38257 9.69916 3.30536 10.4465 3.63888 11.1506L5.05659 10.479C4.97308 10.3027 4.94714 10.0598 5.13388 9.66448L3.71543 8.99448ZM3.64418 11.1615C3.95844 11.7992 4.51899 12.2597 5.20908 12.5856L5.87909 11.1672C5.39933 10.9406 5.16232 10.6933 5.05129 10.468L3.64418 11.1615ZM5.20908 12.5856C5.87519 12.9003 6.57061 13.0715 7.22354 12.9086L6.84389 11.3865C6.69795 11.4229 6.40028 11.4134 5.87909 11.1672L5.20908 12.5856ZM7.21242 12.9113C7.84443 12.7634 8.33566 12.3807 8.61498 11.7893L7.19654 11.1193C7.12947 11.2613 7.03933 11.3407 6.85501 11.3838L7.21242 12.9113ZM8.61498 11.7893C8.79902 11.3997 8.86971 10.9626 8.7396 10.5191L7.23432 10.9607C7.23513 10.9634 7.25168 11.0026 7.19654 11.1193L8.61498 11.7893ZM8.7396 10.5191C8.62578 10.1311 8.39007 9.79754 8.10375 9.51301L6.99798 10.6257C7.16221 10.7889 7.21723 10.9024 7.23432 10.9607L8.7396 10.5191ZM8.1193 9.52891C7.86288 9.25921 7.54439 8.98004 7.17259 8.69151L6.21083 9.93083C6.54227 10.188 6.79655 10.4143 6.98243 10.6098L8.1193 9.52891ZM7.16973 8.6893L6.89946 8.48156L5.94343 9.7253L6.21369 9.93304L7.16973 8.6893ZM6.90232 8.48377C6.372 8.07222 5.95698 7.67992 5.64643 7.30904L4.44368 8.31616C4.84313 8.7932 5.3457 9.26145 5.94057 9.72309L6.90232 8.48377ZM5.65803 7.32323C5.385 6.98123 5.23946 6.65458 5.18572 6.34048L3.63946 6.60501C3.74472 7.22025 4.02083 7.78684 4.43208 8.30197L5.65803 7.32323ZM5.18786 6.35362C5.14746 6.09073 5.193 5.7415 5.41155 5.27883L3.9931 4.60882C3.68381 5.26361 3.5362 5.93367 3.63733 6.59187L5.18786 6.35362ZM5.41155 5.27883C5.62169 4.83395 5.88172 4.54977 6.1737 4.37416L5.36513 3.02986C4.76216 3.39254 4.3108 3.93624 3.9931 4.60882L5.41155 5.27883ZM6.17033 4.37617C6.49204 4.18485 6.86239 4.0881 7.30521 4.10132L7.352 2.53329C6.63656 2.51194 5.96744 2.67166 5.3685 3.02785L6.17033 4.37617ZM7.31181 4.10149C7.77194 4.11134 8.28689 4.23699 8.86372 4.50946L9.53373 3.09101C8.80103 2.74492 8.06923 2.54862 7.34539 2.53312L7.31181 4.10149ZM8.86372 4.50946C9.43626 4.7799 9.86833 5.10513 10.1838 5.47354L11.3754 4.45326C10.8925 3.88935 10.2707 3.43913 9.53373 3.09101L8.86372 4.50946ZM10.1944 5.48572C10.508 5.83699 10.681 6.21471 10.7368 6.63174L12.2917 6.42369C12.1919 5.67808 11.8752 5.01292 11.3647 4.44108L10.1944 5.48572ZM10.7394 6.64949C10.8 7.03512 10.7344 7.49515 10.4709 8.05303L11.8893 8.72304C12.2526 7.95392 12.4097 7.17375 12.2891 6.40594L10.7394 6.64949ZM10.4709 8.05303L10.2853 8.44588L11.7037 9.11589L11.8893 8.72304L10.4709 8.05303ZM11.3295 8.07167L9.62713 7.26754L8.95712 8.68598L10.6595 9.49011L11.3295 8.07167ZM10.0013 8.31176L10.1869 7.91891L8.76847 7.2489L8.5829 7.64176L10.0013 8.31176ZM10.1869 7.91891C10.3933 7.48202 10.5105 7.00954 10.44 6.53217L8.88811 6.7615C8.89899 6.83513 8.892 6.98737 8.76847 7.2489L10.1869 7.91891ZM10.4446 6.56921C10.3981 6.10208 10.197 5.69277 9.87529 5.35893L8.74578 6.44755C8.83966 6.54495 8.87428 6.63137 8.88354 6.72446L10.4446 6.56921ZM9.89126 5.37599C9.60225 5.05767 9.23394 4.80739 8.8162 4.61006L8.14619 6.02851C8.42685 6.16108 8.61145 6.30011 8.72982 6.43048L9.89126 5.37599ZM8.8162 4.61006C8.2245 4.33057 7.59381 4.16644 6.99521 4.30612L7.35167 5.8338C7.44912 5.81107 7.69026 5.81315 8.14619 6.02851L8.8162 4.61006ZM6.99869 4.30531C6.40442 4.44113 5.97264 4.82621 5.72023 5.36057L7.13868 6.03058C7.20792 5.88399 7.27214 5.85199 7.3482 5.83461L6.99869 4.30531ZM5.72023 5.36057C5.55501 5.71034 5.48204 6.09657 5.55643 6.49584L7.09862 6.20852C7.09448 6.18628 7.08946 6.13477 7.13868 6.03058L5.72023 5.36057ZM5.56203 6.52316C5.64528 6.89589 5.83833 7.22481 6.08469 7.51068L7.27304 6.48661C7.14693 6.34028 7.10576 6.23822 7.09302 6.18119L5.56203 6.52316ZM6.08469 7.51068C6.31827 7.78174 6.62128 8.05247 6.97637 8.32374L7.92871 7.07717C7.62469 6.84491 7.41191 6.64776 7.27304 6.48661L6.08469 7.51068ZM6.97452 8.32232L7.24478 8.53007L8.20082 7.28633L7.93056 7.07858L6.97452 8.32232ZM7.2472 8.53192C7.80236 8.95525 8.24092 9.36416 8.57312 9.75626L9.77003 8.74221C9.3481 8.24419 8.82081 7.75908 8.1984 7.28448L7.2472 8.53192ZM8.57312 9.75626C8.8796 10.118 9.04333 10.4614 9.10624 10.7877L10.6466 10.4909C10.5239 9.85392 10.2177 9.27059 9.77003 8.74221L8.57312 9.75626ZM9.10866 10.7998C9.16747 11.0811 9.13284 11.4282 8.92367 11.8711L10.3421 12.5411C10.6608 11.8664 10.7885 11.1691 10.6442 10.4788L9.10866 10.7998ZM8.92367 11.8711C8.7206 12.301 8.44541 12.6025 8.10065 12.8077L8.90289 14.1557C9.53845 13.7775 10.0173 13.2286 10.3421 12.5411L8.92367 11.8711ZM8.09749 12.8096C7.76063 13.0122 7.34778 13.1259 6.83056 13.1235L6.82324 14.6922C7.58457 14.6958 8.2883 14.5254 8.90605 14.1538L8.09749 12.8096ZM6.8364 13.1236C6.34695 13.1176 5.79143 12.9838 5.16155 12.6862L4.49155 14.1047C5.27596 14.4752 6.05401 14.6829 6.8174 14.6922L6.8364 13.1236ZM4.10603 14.6889L9.87102 2.48406L8.45257 1.81405L2.68758 14.0188L4.10603 14.6889ZM8.82679 2.85827L10.3982 3.60055L11.0682 2.1821L9.4968 1.43983L8.82679 2.85827ZM10.024 2.55632L4.25902 14.7611L5.67746 15.4311L11.4425 3.22633L10.024 2.55632ZM5.30324 14.3869L3.73181 13.6446L3.0618 15.0631L4.63323 15.8053L5.30324 14.3869Z" fill="black"/>
</svg>
