<svg width="22" height="20" viewBox="0 0 22 20" fill="none" xmlns="http://www.w3.org/2000/svg">
<path d="M9.72943 18.5753C5.15282 18.5753 1.44274 14.67 1.44274 9.85247C1.44274 5.03498 5.15282 1.12964 9.72943 1.12964C14.306 1.12964 18.0161 5.03498 18.0161 9.85247C18.0161 14.67 14.306 18.5753 9.72943 18.5753Z" stroke="#4C4C4C" stroke-width="1.61995" stroke-linecap="round" stroke-linejoin="round"/>
<path d="M11.9109 7.06135C11.3642 6.62318 10.6846 6.36353 9.94813 6.36353C8.14166 6.36353 6.67725 7.92566 6.67725 9.85266C6.67725 11.7796 8.14166 13.3418 9.94813 13.3418C10.6846 13.3418 11.3642 13.0821 11.9109 12.644" stroke="#4C4C4C" stroke-width="1.61995" stroke-linecap="round" stroke-linejoin="round"/>
<path d="M9.29346 1.12964C13.0733 1.12964 20.6331 2.00192 20.6331 9.85247C20.6331 17.703 13.0733 18.5753 9.29346 18.5753" stroke="#4C4C4C" stroke-width="1.61995"/>
</svg>
