<svg width="21" height="22" viewBox="0 0 21 22" fill="none" xmlns="http://www.w3.org/2000/svg">
<path d="M10.2 0.800049C4.57578 0.800049 0 5.37583 0 11C0 16.6243 4.57578 21.2 10.2 21.2C15.8242 21.2 20.4 16.6243 20.4 11C20.4 5.37583 15.8242 0.800049 10.2 0.800049ZM15.5084 7.58158L8.91764 15.4277C8.84535 15.5138 8.75539 15.5834 8.65386 15.6317C8.55233 15.68 8.44161 15.706 8.32918 15.7077H8.31594C8.20597 15.7077 8.09723 15.6845 7.99678 15.6398C7.89633 15.595 7.80642 15.5296 7.73288 15.4478L4.90826 12.3094C4.83652 12.2333 4.78072 12.1436 4.74413 12.0457C4.70754 11.9477 4.6909 11.8434 4.69519 11.7389C4.69948 11.6345 4.72461 11.5319 4.7691 11.4373C4.8136 11.3426 4.87656 11.2579 4.95429 11.1879C5.03202 11.118 5.12295 11.0642 5.22173 11.0299C5.32051 10.9956 5.42516 10.9814 5.52951 10.9881C5.63386 10.9948 5.73582 11.0223 5.8294 11.069C5.92297 11.1157 6.00627 11.1806 6.07439 11.26L8.29535 13.7276L14.307 6.57237C14.4418 6.41646 14.6326 6.31989 14.8381 6.30351C15.0436 6.28714 15.2472 6.35228 15.4051 6.48486C15.5629 6.61745 15.6622 6.80681 15.6816 7.01203C15.7009 7.21726 15.6387 7.42184 15.5084 7.58158Z" fill="black"/>
</svg>
