<svg width="21" height="21" viewBox="0 0 21 21" fill="none" xmlns="http://www.w3.org/2000/svg">
<path d="M16.6178 8.67545C17.0927 8.68254 17.4834 8.30332 17.4905 7.82845C17.4976 7.35358 17.1184 6.96287 16.6435 6.95578L14.4201 6.92257L19.9118 1.59252C20.2526 1.26177 20.2607 0.717326 19.9299 0.376547C19.5992 0.0357669 19.0547 0.027637 18.7139 0.358388L13.2223 5.68843L13.2555 3.46508C13.2626 2.99021 12.8834 2.5995 12.4085 2.5924C11.9336 2.58531 11.5429 2.96453 11.5358 3.4394L11.4716 7.73857C11.4645 8.21344 11.8437 8.60415 12.3186 8.61124L16.6178 8.67545Z" fill="#4C4C4C"/>
<path d="M3.13121 2.75659C1.53646 2.75659 0.243652 4.0494 0.243652 5.64415V17.1944C0.243652 18.7892 1.53646 20.082 3.13121 20.082H14.6815C16.2763 20.082 17.569 18.7892 17.569 17.1944V12.8631C17.569 12.0657 16.9226 11.4193 16.1252 11.4193C15.3278 11.4193 14.6815 12.0657 14.6815 12.8631V17.1944H3.13121V5.64415H7.46256C8.25993 5.64415 8.90634 4.99774 8.90634 4.20037C8.90634 3.403 8.25993 2.75659 7.46256 2.75659H3.13121Z" fill="#4C4C4C"/>
</svg>
