<?xml version="1.0" encoding="UTF-8"?>
<!DOCTYPE svg PUBLIC "-//W3C//DTD SVG 1.1//EN" "http://www.w3.org/Graphics/SVG/1.1/DTD/svg11.dtd">
<!-- Creator: CorelDRAW X7 -->
<svg xmlns="http://www.w3.org/2000/svg" xml:space="preserve" width="120.145mm" height="89.8042mm" version="1.1" style="shape-rendering:geometricPrecision; text-rendering:geometricPrecision; image-rendering:optimizeQuality; fill-rule:evenodd; clip-rule:evenodd"
viewBox="0 0 13018 9731"
 xmlns:xlink="http://www.w3.org/1999/xlink">
 <defs>
  <style type="text/css">
   <![CDATA[
    .fil0 {fill:#FEFEFE}
   ]]>
  </style>
 </defs>
 <g id="Layer_x0020_1">
  <metadata id="CorelCorpID_0Corel-Layer"/>
  <path class="fil0" d="M5081 41l687 1066 636 -1045 4005 -62c-277,498 -2887,5225 -2922,5190 -87,-88 -775,-883 -803,-924 -10,-15 1552,-2644 1701,-2895l0 0 -1288 -1 -1247 1934c-478,-575 -956,-1204 -1425,-1795l-1418 23 2151 2965 -879 1419 -4279 -5839 5081 -36z"/>
  <polygon class="fil0" points="5983,5436 6784,6379 6366,7065 7082,7984 10419,2423 11639,2389 7140,9731 5023,7075 "/>
  <polygon class="fil0" points="11744,28 13018,35 12048,1407 10944,1337 "/>
 </g>
</svg>
