<svg width="199" height="198" viewBox="0 0 199 198" fill="none" xmlns="http://www.w3.org/2000/svg">
<path d="M108.362 193.843C106.011 196.185 102.827 197.5 99.5083 197.5C96.1254 197.5 92.8859 196.134 90.5242 193.712L79.5931 182.501C73.1939 175.938 64.416 172.237 55.2498 172.237H38.2788C34.9858 172.237 31.8167 170.982 29.4166 168.727C26.8123 166.281 25.3352 162.867 25.3352 159.294V143.3C25.3352 134.361 21.815 125.782 15.5365 119.419L4.06999 107.799C1.7234 105.421 0.407715 102.215 0.407715 98.8736C0.407715 95.5327 1.72336 92.3262 4.06989 89.9482L15.5368 78.3272C21.8151 71.9645 25.3352 63.3853 25.3352 54.4466V38.3062C25.3352 34.7331 26.8123 31.3189 29.4166 28.8724C31.8167 26.6178 34.9858 25.3627 38.2788 25.3627H55.3082C64.44 25.3627 73.1879 21.6893 79.5821 15.1697L90.5131 4.02433C92.8826 1.60834 96.1244 0.24707 99.5085 0.24707C102.828 0.24707 106.014 1.55715 108.373 3.89262L120.123 15.5252C126.489 21.8274 135.085 25.3627 144.043 25.3627H160.839C164.086 25.3627 167.203 26.6318 169.526 28.8989C171.925 31.2397 173.278 34.4494 173.278 37.801V54.3296C173.278 63.3376 176.852 71.9775 183.217 78.3522L194.839 89.9924C197.183 92.3406 198.5 95.5233 198.5 98.8416C198.5 102.198 197.153 105.413 194.761 107.768L182.985 119.36C176.492 125.751 172.835 134.48 172.835 143.591V159.674C172.835 163.015 171.504 166.219 169.137 168.576C166.782 170.921 163.595 172.237 160.272 172.237H144.101C135.109 172.237 126.483 175.799 120.111 182.144L108.362 193.843ZM76.6429 131.528C79.0192 133.895 82.2361 135.223 85.5896 135.223C88.9431 135.223 92.1599 133.895 94.5362 131.528L141.178 85.0851C144.076 82.199 144.076 77.5065 141.178 74.6203C138.294 71.7485 133.63 71.7519 130.75 74.6279L95.8338 109.498C90.2122 115.112 81.1078 115.118 75.4781 109.512L70.5217 104.577C67.6385 101.706 62.9769 101.706 60.0937 104.577C57.1931 107.465 57.1931 112.161 60.0936 115.049L76.6429 131.528Z" fill="#C58A00"/>
</svg>
