<svg width="35" height="30" viewBox="0 0 35 30" fill="none" xmlns="http://www.w3.org/2000/svg">
<path d="M6.42172 7.61951C3.99344 7.20168 0.372966 6.26648 0.372966 6.26648C0.126312 6.24924 0.14514 6.50117 0.14514 6.50117C0.277808 7.50189 1.18655 8.98444 1.55856 9.28175C1.92908 9.57937 6.67456 10.1219 6.67456 10.1219C6.67456 10.1219 3.10591 10.0899 2.22888 10.0046C1.35037 9.9197 1.7272 10.4096 1.7272 10.4096C2.10505 11.3689 3.13554 12.3327 3.78504 12.3075C4.43307 12.2825 7.06192 11.6869 7.06192 11.6869C7.06192 11.6869 6.54945 11.8635 5.72036 12.1689C5.10689 12.3953 4.32448 12.6723 4.13337 12.8017C3.68492 13.1062 4.70108 13.7363 4.70108 13.7363C6.21684 14.711 6.79502 14.1469 6.79502 14.1469C7.25253 13.8707 7.64276 13.6575 7.97634 13.4915L7.95323 15.5569L9.20756 15.2935L9.14246 18.4199L11.2661 13.3969L9.67222 13.7314L9.87187 13.038C9.87801 13.0452 9.88051 13.0497 9.88051 13.0497C9.88051 13.0497 10.5985 10.8435 10.8206 9.74814L10.8261 9.73015L10.8246 9.73046C10.8622 9.54076 10.8854 9.38606 10.8856 9.28335C10.8963 8.08082 8.85148 8.03702 6.42172 7.61951Z" fill="#4C4C4C"/>
<path d="M24.147 4.78449C26.2189 3.46986 29.1855 1.23939 29.1855 1.23939C29.4058 1.12767 29.4874 1.35324 29.4874 1.35324C29.7579 2.27195 29.5028 3.91246 29.277 4.3159C29.0526 4.71903 24.896 7.05081 24.896 7.05081C24.896 7.05081 28.1693 5.62289 28.9434 5.20495C29.719 4.7867 29.5642 5.35882 29.5642 5.35882C29.5927 6.33791 29.022 7.57688 28.4141 7.80987C27.8077 8.04255 25.1535 8.5582 25.1535 8.5582C25.1535 8.5582 25.6946 8.51007 26.5778 8.4492C27.2315 8.40458 28.0606 8.33751 28.2873 8.37453C28.8197 8.46234 28.1313 9.40672 28.1313 9.40672C27.1181 10.8456 26.3644 10.5839 26.3644 10.5839C25.8348 10.5242 25.3918 10.4927 25.0196 10.4798L25.8512 12.2594L24.593 12.5235L25.8796 15.2055L21.9534 11.6886L23.5522 11.353L23.0963 10.8309C23.0935 10.8394 23.0929 10.8443 23.0929 10.8443C23.0929 10.8443 21.5662 9.21544 20.9319 8.35393L20.9198 8.34051L20.9213 8.3402C20.8123 8.19066 20.7302 8.0658 20.6898 7.97689C20.208 6.93967 22.0736 6.09942 24.147 4.78449Z" fill="#4C4C4C"/>
<path d="M17.7227 21.0092C18.4293 20.8582 19.9735 20.5283 19.7494 19.5486C19.5208 18.5466 18.0498 18.9191 17.332 19.1008C17.2518 19.1211 17.181 19.139 17.1224 19.1524L17.5543 21.0459C17.6024 21.0348 17.6592 21.0227 17.7227 21.0092Z" fill="#4C4C4C"/>
<path d="M17.0663 18.2552C17.6561 18.1308 18.9425 17.8594 18.7396 16.9686C18.5316 16.0577 17.3066 16.3716 16.7083 16.5249C16.641 16.5422 16.5816 16.5574 16.5325 16.5686L16.9244 18.2858C16.9648 18.2766 17.0127 18.2665 17.0663 18.2552Z" fill="#4C4C4C"/>
<path fill-rule="evenodd" clip-rule="evenodd" d="M17.3837 26.6382C21.6892 26.7994 25.31 23.4402 25.4712 19.1357C25.6324 14.831 22.2732 11.2099 17.968 11.0489C13.6639 10.8877 10.0431 14.2471 9.88245 18.552C9.72066 22.8563 13.08 26.4768 17.3837 26.6382ZM17.8351 15.2374C18.9676 15.0812 19.925 15.2221 20.2554 16.2184C20.4984 16.9471 20.2887 17.4656 19.8479 17.8334C20.7138 17.8432 21.3396 18.2136 21.4876 19.3302C21.6718 20.7167 20.7428 21.312 19.3156 21.7249L19.6409 23.1516L18.7807 23.3479L18.4599 21.9404C18.237 21.9915 18.0083 22.0417 17.7713 22.0907L18.094 23.5046L17.2347 23.7006L16.9082 22.2716C16.8277 22.2894 16.7465 22.307 16.6647 22.3248C16.5418 22.3514 16.4177 22.3783 16.2926 22.4067L15.1732 22.6622L15.1097 21.5961C15.1097 21.5961 15.7483 21.4608 15.735 21.4536C15.9783 21.3976 16.0029 21.2081 15.9932 21.0949L15.4788 18.8398C15.4998 18.8349 15.5205 18.8302 15.5404 18.8257C15.5504 18.8234 15.5601 18.8212 15.5696 18.819C15.533 18.8223 15.5014 18.8284 15.4773 18.8338L15.1099 17.2241C15.0371 17.0571 14.8775 16.8807 14.5291 16.9601C14.537 16.946 13.9046 17.1031 13.9046 17.1031L13.6947 16.1846L14.8812 15.9142L14.8823 15.9186C15.0606 15.8778 15.2427 15.8326 15.428 15.7863L15.106 14.3736L15.9657 14.1775L16.2816 15.5623C16.5102 15.5053 16.7403 15.4481 16.9664 15.3965L16.6525 14.0208L17.5126 13.8244L17.8351 15.2374Z" fill="#4C4C4C"/>
</svg>
