<svg width="20" height="19" viewBox="0 0 20 19" fill="none" xmlns="http://www.w3.org/2000/svg">
<path d="M13.6927 0C13.1421 0 12.6958 0.446331 12.6958 0.996897C12.6958 1.54746 13.1421 1.99379 13.6927 1.99379H16.2704L9.99706 8.26717C9.60775 8.65646 9.60775 9.28769 9.99706 9.67698C10.3864 10.0663 11.0176 10.0663 11.4069 9.67698L17.6802 3.40362V5.98138C17.6802 6.53195 18.1265 6.97828 18.6771 6.97828C19.2277 6.97828 19.674 6.53195 19.674 5.98138V0.996897C19.674 0.446331 19.2277 0 18.6771 0H13.6927Z" fill="#4C4C4C"/>
<path d="M3.86998 1.11719C2.27523 1.11719 0.982422 2.40999 0.982422 4.00475V15.555C0.982422 17.1498 2.27523 18.4426 3.86998 18.4426H15.4202C17.015 18.4426 18.3078 17.1498 18.3078 15.555V11.2237C18.3078 10.4263 17.6614 9.77987 16.864 9.77987C16.0666 9.77987 15.4202 10.4263 15.4202 11.2237V15.555H3.86998V4.00475H8.20133C8.9987 4.00475 9.64511 3.35834 9.64511 2.56097C9.64511 1.7636 8.9987 1.11719 8.20133 1.11719H3.86998Z" fill="#4C4C4C"/>
</svg>
